<svg version="1.1" xmlns="http://www.w3.org/2000/svg" xmlns:xlink="http://www.w3.org/1999/xlink" width="1440" height="690" viewBox="0 0 1440 690"><defs/><g/><g transform="scale(1,1) scale(1,1)"><g transform="scale(1,1)"><rect fill="rgb(255,255,255)" stroke="none" x="0" y="0" width="1440" height="690" fill-opacity="1"/></g><path fill="rgb(254,114,96)" stroke="none" paint-order="stroke fill markers" d=" M -70.56774876217703 0 C -70.56774876217703 -38.9734914690682 -38.9734914690682 -70.56774876217703 0 -70.56774876217703 C 38.9734914690682 -70.56774876217703 70.56774876217703 -38.9734914690682 70.56774876217703 0 C 70.56774876217703 38.9734914690682 38.9734914690682 70.56774876217703 0 70.56774876217703 C -38.9734914690682 70.56774876217703 -70.56774876217703 38.9734914690682 -70.56774876217703 0 Z" fill-opacity="1"/><path fill="rgb(254,114,128)" stroke="none" paint-order="stroke fill markers" d=" M -70.56774876217703 141.13549752435407 C -70.56774876217703 102.16200605528587 -38.9734914690682 70.56774876217703 0 70.56774876217703 C 38.9734914690682 70.56774876217703 70.56774876217703 102.16200605528587 70.56774876217703 141.13549752435407 C 70.56774876217703 180.10898899342226 38.9734914690682 211.7032462865311 0 211.7032462865311 C -38.9734914690682 211.7032462865311 -70.56774876217703 180.10898899342226 -70.56774876217703 141.13549752435407 Z" fill-opacity="1"/><path fill="rgb(254,114,139)" stroke="none" paint-order="stroke fill markers" d=" M -70.56774876217703 282.27099504870813 C -70.56774876217703 243.29750357963994 -38.9734914690682 211.7032462865311 0 211.7032462865311 C 38.9734914690682 211.7032462865311 70.56774876217703 243.29750357963994 70.56774876217703 282.27099504870813 C 70.56774876217703 321.24448651777635 38.9734914690682 352.83874381088515 0 352.83874381088515 C -38.9734914690682 352.83874381088515 -70.56774876217703 321.24448651777635 -70.56774876217703 282.27099504870813 Z" fill-opacity="1"/><path fill="rgb(254,114,43)" stroke="none" paint-order="stroke fill markers" d=" M -70.56774876217703 423.4064925730622 C -70.56774876217703 384.433001103994 -38.9734914690682 352.8387438108852 0 352.8387438108852 C 38.9734914690682 352.8387438108852 70.56774876217703 384.433001103994 70.56774876217703 423.4064925730622 C 70.56774876217703 462.37998404213045 38.9734914690682 493.9742413352393 0 493.9742413352393 C -38.9734914690682 493.9742413352393 -70.56774876217703 462.37998404213045 -70.56774876217703 423.4064925730622 Z" fill-opacity="1"/><path fill="rgb(254,114,118)" stroke="none" paint-order="stroke fill markers" d=" M -70.56774876217703 564.5419900974163 C -70.56774876217703 525.568498628348 -38.9734914690682 493.97424133523924 0 493.97424133523924 C 38.9734914690682 493.97424133523924 70.56774876217703 525.568498628348 70.56774876217703 564.5419900974163 C 70.56774876217703 603.5154815664845 38.9734914690682 635.1097388595933 0 635.1097388595933 C -38.9734914690682 635.1097388595933 -70.56774876217703 603.5154815664845 -70.56774876217703 564.5419900974163 Z" fill-opacity="1"/><path fill="rgb(254,114,10)" stroke="none" paint-order="stroke fill markers" d=" M 70.56774876217703 0 C 70.56774876217703 -38.9734914690682 102.16200605528587 -70.56774876217703 141.13549752435407 -70.56774876217703 C 180.10898899342226 -70.56774876217703 211.7032462865311 -38.9734914690682 211.7032462865311 0 C 211.7032462865311 38.9734914690682 180.10898899342226 70.56774876217703 141.13549752435407 70.56774876217703 C 102.16200605528587 70.56774876217703 70.56774876217703 38.9734914690682 70.56774876217703 0 Z" fill-opacity="1"/><path fill="rgb(254,114,142)" stroke="none" paint-order="stroke fill markers" d=" M 70.56774876217703 141.13549752435407 C 70.56774876217703 102.16200605528587 102.16200605528587 70.56774876217703 141.13549752435407 70.56774876217703 C 180.10898899342226 70.56774876217703 211.7032462865311 102.16200605528587 211.7032462865311 141.13549752435407 C 211.7032462865311 180.10898899342226 180.10898899342226 211.7032462865311 141.13549752435407 211.7032462865311 C 102.16200605528587 211.7032462865311 70.56774876217703 180.10898899342226 70.56774876217703 141.13549752435407 Z" fill-opacity="1"/><path fill="rgb(254,114,31)" stroke="none" paint-order="stroke fill markers" d=" M 70.56774876217703 282.27099504870813 C 70.56774876217703 243.29750357963994 102.16200605528587 211.7032462865311 141.13549752435407 211.7032462865311 C 180.10898899342226 211.7032462865311 211.7032462865311 243.29750357963994 211.7032462865311 282.27099504870813 C 211.7032462865311 321.24448651777635 180.10898899342226 352.83874381088515 141.13549752435407 352.83874381088515 C 102.16200605528587 352.83874381088515 70.56774876217703 321.24448651777635 70.56774876217703 282.27099504870813 Z" fill-opacity="1"/><path fill="rgb(254,114,113)" stroke="none" paint-order="stroke fill markers" d=" M 70.56774876217703 423.4064925730622 C 70.56774876217703 384.433001103994 102.16200605528587 352.8387438108852 141.13549752435407 352.8387438108852 C 180.10898899342226 352.8387438108852 211.7032462865311 384.433001103994 211.7032462865311 423.4064925730622 C 211.7032462865311 462.37998404213045 180.10898899342226 493.9742413352393 141.13549752435407 493.9742413352393 C 102.16200605528587 493.9742413352393 70.56774876217703 462.37998404213045 70.56774876217703 423.4064925730622 Z" fill-opacity="1"/><path fill="rgb(254,114,80)" stroke="none" paint-order="stroke fill markers" d=" M 70.56774876217703 564.5419900974163 C 70.56774876217703 525.568498628348 102.16200605528587 493.97424133523924 141.13549752435407 493.97424133523924 C 180.10898899342226 493.97424133523924 211.7032462865311 525.568498628348 211.7032462865311 564.5419900974163 C 211.7032462865311 603.5154815664845 180.10898899342226 635.1097388595933 141.13549752435407 635.1097388595933 C 102.16200605528587 635.1097388595933 70.56774876217703 603.5154815664845 70.56774876217703 564.5419900974163 Z" fill-opacity="1"/><path fill="rgb(254,114,106)" stroke="none" paint-order="stroke fill markers" d=" M 211.7032462865311 0 C 211.7032462865311 -38.9734914690682 243.29750357963994 -70.56774876217703 282.27099504870813 -70.56774876217703 C 321.24448651777635 -70.56774876217703 352.83874381088515 -38.9734914690682 352.83874381088515 0 C 352.83874381088515 38.9734914690682 321.24448651777635 70.56774876217703 282.27099504870813 70.56774876217703 C 243.29750357963994 70.56774876217703 211.7032462865311 38.9734914690682 211.7032462865311 0 Z" fill-opacity="1"/><path fill="rgb(254,114,73)" stroke="none" paint-order="stroke fill markers" d=" M 211.7032462865311 141.13549752435407 C 211.7032462865311 102.16200605528587 243.29750357963994 70.56774876217703 282.27099504870813 70.56774876217703 C 321.24448651777635 70.56774876217703 352.83874381088515 102.16200605528587 352.83874381088515 141.13549752435407 C 352.83874381088515 180.10898899342226 321.24448651777635 211.7032462865311 282.27099504870813 211.7032462865311 C 243.29750357963994 211.7032462865311 211.7032462865311 180.10898899342226 211.7032462865311 141.13549752435407 Z" fill-opacity="1"/><path fill="rgb(254,114,149)" stroke="none" paint-order="stroke fill markers" d=" M 211.7032462865311 282.27099504870813 C 211.7032462865311 243.29750357963994 243.29750357963994 211.7032462865311 282.27099504870813 211.7032462865311 C 321.24448651777635 211.7032462865311 352.83874381088515 243.29750357963994 352.83874381088515 282.27099504870813 C 352.83874381088515 321.24448651777635 321.24448651777635 352.83874381088515 282.27099504870813 352.83874381088515 C 243.29750357963994 352.83874381088515 211.7032462865311 321.24448651777635 211.7032462865311 282.27099504870813 Z" fill-opacity="1"/><path fill="rgb(254,114,32)" stroke="none" paint-order="stroke fill markers" d=" M 211.7032462865311 423.4064925730622 C 211.7032462865311 384.433001103994 243.29750357963994 352.8387438108852 282.27099504870813 352.8387438108852 C 321.24448651777635 352.8387438108852 352.83874381088515 384.433001103994 352.83874381088515 423.4064925730622 C 352.83874381088515 462.37998404213045 321.24448651777635 493.9742413352393 282.27099504870813 493.9742413352393 C 243.29750357963994 493.9742413352393 211.7032462865311 462.37998404213045 211.7032462865311 423.4064925730622 Z" fill-opacity="1"/><path fill="rgb(254,114,118)" stroke="none" paint-order="stroke fill markers" d=" M 211.7032462865311 564.5419900974163 C 211.7032462865311 525.568498628348 243.29750357963994 493.97424133523924 282.27099504870813 493.97424133523924 C 321.24448651777635 493.97424133523924 352.83874381088515 525.568498628348 352.83874381088515 564.5419900974163 C 352.83874381088515 603.5154815664845 321.24448651777635 635.1097388595933 282.27099504870813 635.1097388595933 C 243.29750357963994 635.1097388595933 211.7032462865311 603.5154815664845 211.7032462865311 564.5419900974163 Z" fill-opacity="1"/><path fill="rgb(254,114,66)" stroke="none" paint-order="stroke fill markers" d=" M 352.8387438108852 0 C 352.8387438108852 -38.9734914690682 384.433001103994 -70.56774876217703 423.4064925730622 -70.56774876217703 C 462.37998404213045 -70.56774876217703 493.9742413352393 -38.9734914690682 493.9742413352393 0 C 493.9742413352393 38.9734914690682 462.37998404213045 70.56774876217703 423.4064925730622 70.56774876217703 C 384.433001103994 70.56774876217703 352.8387438108852 38.9734914690682 352.8387438108852 0 Z" fill-opacity="1"/><path fill="rgb(254,114,72)" stroke="none" paint-order="stroke fill markers" d=" M 352.8387438108852 141.13549752435407 C 352.8387438108852 102.16200605528587 384.433001103994 70.56774876217703 423.4064925730622 70.56774876217703 C 462.37998404213045 70.56774876217703 493.9742413352393 102.16200605528587 493.9742413352393 141.13549752435407 C 493.9742413352393 180.10898899342226 462.37998404213045 211.7032462865311 423.4064925730622 211.7032462865311 C 384.433001103994 211.7032462865311 352.8387438108852 180.10898899342226 352.8387438108852 141.13549752435407 Z" fill-opacity="1"/><path fill="rgb(254,114,143)" stroke="none" paint-order="stroke fill markers" d=" M 352.8387438108852 282.27099504870813 C 352.8387438108852 243.29750357963994 384.433001103994 211.7032462865311 423.4064925730622 211.7032462865311 C 462.37998404213045 211.7032462865311 493.9742413352393 243.29750357963994 493.9742413352393 282.27099504870813 C 493.9742413352393 321.24448651777635 462.37998404213045 352.83874381088515 423.4064925730622 352.83874381088515 C 384.433001103994 352.83874381088515 352.8387438108852 321.24448651777635 352.8387438108852 282.27099504870813 Z" fill-opacity="1"/><path fill="rgb(254,114,45)" stroke="none" paint-order="stroke fill markers" d=" M 352.8387438108852 423.4064925730622 C 352.8387438108852 384.433001103994 384.433001103994 352.8387438108852 423.4064925730622 352.8387438108852 C 462.37998404213045 352.8387438108852 493.9742413352393 384.433001103994 493.9742413352393 423.4064925730622 C 493.9742413352393 462.37998404213045 462.37998404213045 493.9742413352393 423.4064925730622 493.9742413352393 C 384.433001103994 493.9742413352393 352.8387438108852 462.37998404213045 352.8387438108852 423.4064925730622 Z" fill-opacity="1"/><path fill="rgb(254,114,77)" stroke="none" paint-order="stroke fill markers" d=" M 352.8387438108852 564.5419900974163 C 352.8387438108852 525.568498628348 384.433001103994 493.97424133523924 423.4064925730622 493.97424133523924 C 462.37998404213045 493.97424133523924 493.9742413352393 525.568498628348 493.9742413352393 564.5419900974163 C 493.9742413352393 603.5154815664845 462.37998404213045 635.1097388595933 423.4064925730622 635.1097388595933 C 384.433001103994 635.1097388595933 352.8387438108852 603.5154815664845 352.8387438108852 564.5419900974163 Z" fill-opacity="1"/><path fill="rgb(254,114,115)" stroke="none" paint-order="stroke fill markers" d=" M 493.97424133523924 0 C 493.97424133523924 -38.9734914690682 525.568498628348 -70.56774876217703 564.5419900974163 -70.56774876217703 C 603.5154815664845 -70.56774876217703 635.1097388595933 -38.9734914690682 635.1097388595933 0 C 635.1097388595933 38.9734914690682 603.5154815664845 70.56774876217703 564.5419900974163 70.56774876217703 C 525.568498628348 70.56774876217703 493.97424133523924 38.9734914690682 493.97424133523924 0 Z" fill-opacity="1"/><path fill="rgb(254,114,101)" stroke="none" paint-order="stroke fill markers" d=" M 493.97424133523924 141.13549752435407 C 493.97424133523924 102.16200605528587 525.568498628348 70.56774876217703 564.5419900974163 70.56774876217703 C 603.5154815664845 70.56774876217703 635.1097388595933 102.16200605528587 635.1097388595933 141.13549752435407 C 635.1097388595933 180.10898899342226 603.5154815664845 211.7032462865311 564.5419900974163 211.7032462865311 C 525.568498628348 211.7032462865311 493.97424133523924 180.10898899342226 493.97424133523924 141.13549752435407 Z" fill-opacity="1"/><path fill="rgb(254,114,26)" stroke="none" paint-order="stroke fill markers" d=" M 493.97424133523924 282.27099504870813 C 493.97424133523924 243.29750357963994 525.568498628348 211.7032462865311 564.5419900974163 211.7032462865311 C 603.5154815664845 211.7032462865311 635.1097388595933 243.29750357963994 635.1097388595933 282.27099504870813 C 635.1097388595933 321.24448651777635 603.5154815664845 352.83874381088515 564.5419900974163 352.83874381088515 C 525.568498628348 352.83874381088515 493.97424133523924 321.24448651777635 493.97424133523924 282.27099504870813 Z" fill-opacity="1"/><path fill="rgb(254,114,149)" stroke="none" paint-order="stroke fill markers" d=" M 493.97424133523924 423.4064925730622 C 493.97424133523924 384.433001103994 525.568498628348 352.8387438108852 564.5419900974163 352.8387438108852 C 603.5154815664845 352.8387438108852 635.1097388595933 384.433001103994 635.1097388595933 423.4064925730622 C 635.1097388595933 462.37998404213045 603.5154815664845 493.9742413352393 564.5419900974163 493.9742413352393 C 525.568498628348 493.9742413352393 493.97424133523924 462.37998404213045 493.97424133523924 423.4064925730622 Z" fill-opacity="1"/><path fill="rgb(254,114,31)" stroke="none" paint-order="stroke fill markers" d=" M 493.97424133523924 564.5419900974163 C 493.97424133523924 525.568498628348 525.568498628348 493.97424133523924 564.5419900974163 493.97424133523924 C 603.5154815664845 493.97424133523924 635.1097388595933 525.568498628348 635.1097388595933 564.5419900974163 C 635.1097388595933 603.5154815664845 603.5154815664845 635.1097388595933 564.5419900974163 635.1097388595933 C 525.568498628348 635.1097388595933 493.97424133523924 603.5154815664845 493.97424133523924 564.5419900974163 Z" fill-opacity="1"/><path fill="rgb(254,114,53)" stroke="none" paint-order="stroke fill markers" d=" M 635.1097388595932 0 C 635.1097388595932 -38.9734914690682 666.7039961527021 -70.56774876217703 705.6774876217703 -70.56774876217703 C 744.6509790908385 -70.56774876217703 776.2452363839473 -38.9734914690682 776.2452363839473 0 C 776.2452363839473 38.9734914690682 744.6509790908385 70.56774876217703 705.6774876217703 70.56774876217703 C 666.7039961527021 70.56774876217703 635.1097388595932 38.9734914690682 635.1097388595932 0 Z" fill-opacity="1"/><path fill="rgb(254,114,10)" stroke="none" paint-order="stroke fill markers" d=" M 635.1097388595932 141.13549752435407 C 635.1097388595932 102.16200605528587 666.7039961527021 70.56774876217703 705.6774876217703 70.56774876217703 C 744.6509790908385 70.56774876217703 776.2452363839473 102.16200605528587 776.2452363839473 141.13549752435407 C 776.2452363839473 180.10898899342226 744.6509790908385 211.7032462865311 705.6774876217703 211.7032462865311 C 666.7039961527021 211.7032462865311 635.1097388595932 180.10898899342226 635.1097388595932 141.13549752435407 Z" fill-opacity="1"/><path fill="rgb(254,114,79)" stroke="none" paint-order="stroke fill markers" d=" M 635.1097388595932 282.27099504870813 C 635.1097388595932 243.29750357963994 666.7039961527021 211.7032462865311 705.6774876217703 211.7032462865311 C 744.6509790908385 211.7032462865311 776.2452363839473 243.29750357963994 776.2452363839473 282.27099504870813 C 776.2452363839473 321.24448651777635 744.6509790908385 352.83874381088515 705.6774876217703 352.83874381088515 C 666.7039961527021 352.83874381088515 635.1097388595932 321.24448651777635 635.1097388595932 282.27099504870813 Z" fill-opacity="1"/><path fill="rgb(254,114,127)" stroke="none" paint-order="stroke fill markers" d=" M 635.1097388595932 423.4064925730622 C 635.1097388595932 384.433001103994 666.7039961527021 352.8387438108852 705.6774876217703 352.8387438108852 C 744.6509790908385 352.8387438108852 776.2452363839473 384.433001103994 776.2452363839473 423.4064925730622 C 776.2452363839473 462.37998404213045 744.6509790908385 493.9742413352393 705.6774876217703 493.9742413352393 C 666.7039961527021 493.9742413352393 635.1097388595932 462.37998404213045 635.1097388595932 423.4064925730622 Z" fill-opacity="1"/><path fill="rgb(254,114,97)" stroke="none" paint-order="stroke fill markers" d=" M 635.1097388595932 564.5419900974163 C 635.1097388595932 525.568498628348 666.7039961527021 493.97424133523924 705.6774876217703 493.97424133523924 C 744.6509790908385 493.97424133523924 776.2452363839473 525.568498628348 776.2452363839473 564.5419900974163 C 776.2452363839473 603.5154815664845 744.6509790908385 635.1097388595933 705.6774876217703 635.1097388595933 C 666.7039961527021 635.1097388595933 635.1097388595932 603.5154815664845 635.1097388595932 564.5419900974163 Z" fill-opacity="1"/><path fill="rgb(254,114,47)" stroke="none" paint-order="stroke fill markers" d=" M 776.2452363839473 0 C 776.2452363839473 -38.9734914690682 807.8394936770561 -70.56774876217703 846.8129851461243 -70.56774876217703 C 885.7864766151926 -70.56774876217703 917.3807339083013 -38.9734914690682 917.3807339083013 0 C 917.3807339083013 38.9734914690682 885.7864766151926 70.56774876217703 846.8129851461243 70.56774876217703 C 807.8394936770561 70.56774876217703 776.2452363839473 38.9734914690682 776.2452363839473 0 Z" fill-opacity="1"/><path fill="rgb(254,114,145)" stroke="none" paint-order="stroke fill markers" d=" M 776.2452363839473 141.13549752435407 C 776.2452363839473 102.16200605528587 807.8394936770561 70.56774876217703 846.8129851461243 70.56774876217703 C 885.7864766151926 70.56774876217703 917.3807339083013 102.16200605528587 917.3807339083013 141.13549752435407 C 917.3807339083013 180.10898899342226 885.7864766151926 211.7032462865311 846.8129851461243 211.7032462865311 C 807.8394936770561 211.7032462865311 776.2452363839473 180.10898899342226 776.2452363839473 141.13549752435407 Z" fill-opacity="1"/><path fill="rgb(254,114,131)" stroke="none" paint-order="stroke fill markers" d=" M 776.2452363839473 282.27099504870813 C 776.2452363839473 243.29750357963994 807.8394936770561 211.7032462865311 846.8129851461243 211.7032462865311 C 885.7864766151926 211.7032462865311 917.3807339083013 243.29750357963994 917.3807339083013 282.27099504870813 C 917.3807339083013 321.24448651777635 885.7864766151926 352.83874381088515 846.8129851461243 352.83874381088515 C 807.8394936770561 352.83874381088515 776.2452363839473 321.24448651777635 776.2452363839473 282.27099504870813 Z" fill-opacity="1"/><path fill="rgb(254,114,70)" stroke="none" paint-order="stroke fill markers" d=" M 776.2452363839473 423.4064925730622 C 776.2452363839473 384.433001103994 807.8394936770561 352.8387438108852 846.8129851461243 352.8387438108852 C 885.7864766151926 352.8387438108852 917.3807339083013 384.433001103994 917.3807339083013 423.4064925730622 C 917.3807339083013 462.37998404213045 885.7864766151926 493.9742413352393 846.8129851461243 493.9742413352393 C 807.8394936770561 493.9742413352393 776.2452363839473 462.37998404213045 776.2452363839473 423.4064925730622 Z" fill-opacity="1"/><path fill="rgb(254,114,31)" stroke="none" paint-order="stroke fill markers" d=" M 776.2452363839473 564.5419900974163 C 776.2452363839473 525.568498628348 807.8394936770561 493.97424133523924 846.8129851461243 493.97424133523924 C 885.7864766151926 493.97424133523924 917.3807339083013 525.568498628348 917.3807339083013 564.5419900974163 C 917.3807339083013 603.5154815664845 885.7864766151926 635.1097388595933 846.8129851461243 635.1097388595933 C 807.8394936770561 635.1097388595933 776.2452363839473 603.5154815664845 776.2452363839473 564.5419900974163 Z" fill-opacity="1"/><path fill="rgb(254,114,142)" stroke="none" paint-order="stroke fill markers" d=" M 917.3807339083013 0 C 917.3807339083013 -38.9734914690682 948.9749912014101 -70.56774876217703 987.9484826704784 -70.56774876217703 C 1026.9219741395466 -70.56774876217703 1058.5162314326553 -38.9734914690682 1058.5162314326553 0 C 1058.5162314326553 38.9734914690682 1026.9219741395466 70.56774876217703 987.9484826704784 70.56774876217703 C 948.9749912014101 70.56774876217703 917.3807339083013 38.9734914690682 917.3807339083013 0 Z" fill-opacity="1"/><path fill="rgb(254,114,17)" stroke="none" paint-order="stroke fill markers" d=" M 917.3807339083013 141.13549752435407 C 917.3807339083013 102.16200605528587 948.9749912014101 70.56774876217703 987.9484826704784 70.56774876217703 C 1026.9219741395466 70.56774876217703 1058.5162314326553 102.16200605528587 1058.5162314326553 141.13549752435407 C 1058.5162314326553 180.10898899342226 1026.9219741395466 211.7032462865311 987.9484826704784 211.7032462865311 C 948.9749912014101 211.7032462865311 917.3807339083013 180.10898899342226 917.3807339083013 141.13549752435407 Z" fill-opacity="1"/><path fill="rgb(254,114,132)" stroke="none" paint-order="stroke fill markers" d=" M 917.3807339083013 282.27099504870813 C 917.3807339083013 243.29750357963994 948.9749912014101 211.7032462865311 987.9484826704784 211.7032462865311 C 1026.9219741395466 211.7032462865311 1058.5162314326553 243.29750357963994 1058.5162314326553 282.27099504870813 C 1058.5162314326553 321.24448651777635 1026.9219741395466 352.83874381088515 987.9484826704784 352.83874381088515 C 948.9749912014101 352.83874381088515 917.3807339083013 321.24448651777635 917.3807339083013 282.27099504870813 Z" fill-opacity="1"/><path fill="rgb(254,114,108)" stroke="none" paint-order="stroke fill markers" d=" M 917.3807339083013 423.4064925730622 C 917.3807339083013 384.433001103994 948.9749912014101 352.8387438108852 987.9484826704784 352.8387438108852 C 1026.9219741395466 352.8387438108852 1058.5162314326553 384.433001103994 1058.5162314326553 423.4064925730622 C 1058.5162314326553 462.37998404213045 1026.9219741395466 493.9742413352393 987.9484826704784 493.9742413352393 C 948.9749912014101 493.9742413352393 917.3807339083013 462.37998404213045 917.3807339083013 423.4064925730622 Z" fill-opacity="1"/><path fill="rgb(254,114,37)" stroke="none" paint-order="stroke fill markers" d=" M 917.3807339083013 564.5419900974163 C 917.3807339083013 525.568498628348 948.9749912014101 493.97424133523924 987.9484826704784 493.97424133523924 C 1026.9219741395466 493.97424133523924 1058.5162314326553 525.568498628348 1058.5162314326553 564.5419900974163 C 1058.5162314326553 603.5154815664845 1026.9219741395466 635.1097388595933 987.9484826704784 635.1097388595933 C 948.9749912014101 635.1097388595933 917.3807339083013 603.5154815664845 917.3807339083013 564.5419900974163 Z" fill-opacity="1"/><path fill="rgb(254,114,115)" stroke="none" paint-order="stroke fill markers" d=" M 1058.5162314326556 0 C 1058.5162314326556 -38.9734914690682 1090.1104887257643 -70.56774876217703 1129.0839801948325 -70.56774876217703 C 1168.0574716639007 -70.56774876217703 1199.6517289570097 -38.9734914690682 1199.6517289570097 0 C 1199.6517289570097 38.9734914690682 1168.0574716639007 70.56774876217703 1129.0839801948325 70.56774876217703 C 1090.1104887257643 70.56774876217703 1058.5162314326556 38.9734914690682 1058.5162314326556 0 Z" fill-opacity="1"/><path fill="rgb(254,114,121)" stroke="none" paint-order="stroke fill markers" d=" M 1058.5162314326556 141.13549752435407 C 1058.5162314326556 102.16200605528587 1090.1104887257643 70.56774876217703 1129.0839801948325 70.56774876217703 C 1168.0574716639007 70.56774876217703 1199.6517289570097 102.16200605528587 1199.6517289570097 141.13549752435407 C 1199.6517289570097 180.10898899342226 1168.0574716639007 211.7032462865311 1129.0839801948325 211.7032462865311 C 1090.1104887257643 211.7032462865311 1058.5162314326556 180.10898899342226 1058.5162314326556 141.13549752435407 Z" fill-opacity="1"/><path fill="rgb(254,114,48)" stroke="none" paint-order="stroke fill markers" d=" M 1058.5162314326556 282.27099504870813 C 1058.5162314326556 243.29750357963994 1090.1104887257643 211.7032462865311 1129.0839801948325 211.7032462865311 C 1168.0574716639007 211.7032462865311 1199.6517289570097 243.29750357963994 1199.6517289570097 282.27099504870813 C 1199.6517289570097 321.24448651777635 1168.0574716639007 352.83874381088515 1129.0839801948325 352.83874381088515 C 1090.1104887257643 352.83874381088515 1058.5162314326556 321.24448651777635 1058.5162314326556 282.27099504870813 Z" fill-opacity="1"/><path fill="rgb(254,114,110)" stroke="none" paint-order="stroke fill markers" d=" M 1058.5162314326556 423.4064925730622 C 1058.5162314326556 384.433001103994 1090.1104887257643 352.8387438108852 1129.0839801948325 352.8387438108852 C 1168.0574716639007 352.8387438108852 1199.6517289570097 384.433001103994 1199.6517289570097 423.4064925730622 C 1199.6517289570097 462.37998404213045 1168.0574716639007 493.9742413352393 1129.0839801948325 493.9742413352393 C 1090.1104887257643 493.9742413352393 1058.5162314326556 462.37998404213045 1058.5162314326556 423.4064925730622 Z" fill-opacity="1"/><path fill="rgb(254,114,113)" stroke="none" paint-order="stroke fill markers" d=" M 1058.5162314326556 564.5419900974163 C 1058.5162314326556 525.568498628348 1090.1104887257643 493.97424133523924 1129.0839801948325 493.97424133523924 C 1168.0574716639007 493.97424133523924 1199.6517289570097 525.568498628348 1199.6517289570097 564.5419900974163 C 1199.6517289570097 603.5154815664845 1168.0574716639007 635.1097388595933 1129.0839801948325 635.1097388595933 C 1090.1104887257643 635.1097388595933 1058.5162314326556 603.5154815664845 1058.5162314326556 564.5419900974163 Z" fill-opacity="1"/><path fill="rgb(254,114,97)" stroke="none" paint-order="stroke fill markers" d=" M 1199.6517289570097 0 C 1199.6517289570097 -38.9734914690682 1231.2459862501184 -70.56774876217703 1270.2194777191867 -70.56774876217703 C 1309.192969188255 -70.56774876217703 1340.7872264813639 -38.9734914690682 1340.7872264813639 0 C 1340.7872264813639 38.9734914690682 1309.192969188255 70.56774876217703 1270.2194777191867 70.56774876217703 C 1231.2459862501184 70.56774876217703 1199.6517289570097 38.9734914690682 1199.6517289570097 0 Z" fill-opacity="1"/><path fill="rgb(254,114,16)" stroke="none" paint-order="stroke fill markers" d=" M 1199.6517289570097 141.13549752435407 C 1199.6517289570097 102.16200605528587 1231.2459862501184 70.56774876217703 1270.2194777191867 70.56774876217703 C 1309.192969188255 70.56774876217703 1340.7872264813639 102.16200605528587 1340.7872264813639 141.13549752435407 C 1340.7872264813639 180.10898899342226 1309.192969188255 211.7032462865311 1270.2194777191867 211.7032462865311 C 1231.2459862501184 211.7032462865311 1199.6517289570097 180.10898899342226 1199.6517289570097 141.13549752435407 Z" fill-opacity="1"/><path fill="rgb(254,114,150)" stroke="none" paint-order="stroke fill markers" d=" M 1199.6517289570097 282.27099504870813 C 1199.6517289570097 243.29750357963994 1231.2459862501184 211.7032462865311 1270.2194777191867 211.7032462865311 C 1309.192969188255 211.7032462865311 1340.7872264813639 243.29750357963994 1340.7872264813639 282.27099504870813 C 1340.7872264813639 321.24448651777635 1309.192969188255 352.83874381088515 1270.2194777191867 352.83874381088515 C 1231.2459862501184 352.83874381088515 1199.6517289570097 321.24448651777635 1199.6517289570097 282.27099504870813 Z" fill-opacity="1"/><path fill="rgb(254,114,140)" stroke="none" paint-order="stroke fill markers" d=" M 1199.6517289570097 423.4064925730622 C 1199.6517289570097 384.433001103994 1231.2459862501184 352.8387438108852 1270.2194777191867 352.8387438108852 C 1309.192969188255 352.8387438108852 1340.7872264813639 384.433001103994 1340.7872264813639 423.4064925730622 C 1340.7872264813639 462.37998404213045 1309.192969188255 493.9742413352393 1270.2194777191867 493.9742413352393 C 1231.2459862501184 493.9742413352393 1199.6517289570097 462.37998404213045 1199.6517289570097 423.4064925730622 Z" fill-opacity="1"/><path fill="rgb(254,114,136)" stroke="none" paint-order="stroke fill markers" d=" M 1199.6517289570097 564.5419900974163 C 1199.6517289570097 525.568498628348 1231.2459862501184 493.97424133523924 1270.2194777191867 493.97424133523924 C 1309.192969188255 493.97424133523924 1340.7872264813639 525.568498628348 1340.7872264813639 564.5419900974163 C 1340.7872264813639 603.5154815664845 1309.192969188255 635.1097388595933 1270.2194777191867 635.1097388595933 C 1231.2459862501184 635.1097388595933 1199.6517289570097 603.5154815664845 1199.6517289570097 564.5419900974163 Z" fill-opacity="1"/><path fill="rgb(254,114,143)" stroke="none" paint-order="stroke fill markers" d=" M 1340.7872264813639 0 C 1340.7872264813639 -38.9734914690682 1372.3814837744726 -70.56774876217703 1411.3549752435408 -70.56774876217703 C 1450.328466712609 -70.56774876217703 1481.922724005718 -38.9734914690682 1481.922724005718 0 C 1481.922724005718 38.9734914690682 1450.328466712609 70.56774876217703 1411.3549752435408 70.56774876217703 C 1372.3814837744726 70.56774876217703 1340.7872264813639 38.9734914690682 1340.7872264813639 0 Z" fill-opacity="1"/><path fill="rgb(254,114,146)" stroke="none" paint-order="stroke fill markers" d=" M 1340.7872264813639 141.13549752435407 C 1340.7872264813639 102.16200605528587 1372.3814837744726 70.56774876217703 1411.3549752435408 70.56774876217703 C 1450.328466712609 70.56774876217703 1481.922724005718 102.16200605528587 1481.922724005718 141.13549752435407 C 1481.922724005718 180.10898899342226 1450.328466712609 211.7032462865311 1411.3549752435408 211.7032462865311 C 1372.3814837744726 211.7032462865311 1340.7872264813639 180.10898899342226 1340.7872264813639 141.13549752435407 Z" fill-opacity="1"/><path fill="rgb(254,114,100)" stroke="none" paint-order="stroke fill markers" d=" M 1340.7872264813639 282.27099504870813 C 1340.7872264813639 243.29750357963994 1372.3814837744726 211.7032462865311 1411.3549752435408 211.7032462865311 C 1450.328466712609 211.7032462865311 1481.922724005718 243.29750357963994 1481.922724005718 282.27099504870813 C 1481.922724005718 321.24448651777635 1450.328466712609 352.83874381088515 1411.3549752435408 352.83874381088515 C 1372.3814837744726 352.83874381088515 1340.7872264813639 321.24448651777635 1340.7872264813639 282.27099504870813 Z" fill-opacity="1"/><path fill="rgb(254,114,68)" stroke="none" paint-order="stroke fill markers" d=" M 1340.7872264813639 423.4064925730622 C 1340.7872264813639 384.433001103994 1372.3814837744726 352.8387438108852 1411.3549752435408 352.8387438108852 C 1450.328466712609 352.8387438108852 1481.922724005718 384.433001103994 1481.922724005718 423.4064925730622 C 1481.922724005718 462.37998404213045 1450.328466712609 493.9742413352393 1411.3549752435408 493.9742413352393 C 1372.3814837744726 493.9742413352393 1340.7872264813639 462.37998404213045 1340.7872264813639 423.4064925730622 Z" fill-opacity="1"/><path fill="rgb(254,114,75)" stroke="none" paint-order="stroke fill markers" d=" M 1340.7872264813639 564.5419900974163 C 1340.7872264813639 525.568498628348 1372.3814837744726 493.97424133523924 1411.3549752435408 493.97424133523924 C 1450.328466712609 493.97424133523924 1481.922724005718 525.568498628348 1481.922724005718 564.5419900974163 C 1481.922724005718 603.5154815664845 1450.328466712609 635.1097388595933 1411.3549752435408 635.1097388595933 C 1372.3814837744726 635.1097388595933 1340.7872264813639 603.5154815664845 1340.7872264813639 564.5419900974163 Z" fill-opacity="1"/><path fill="rgb(252,245,239)" stroke="none" paint-order="stroke fill markers" d=" M -44.977484077058 0 C -44.977484077058 -24.84037854013146 -24.84037854013146 -44.977484077058 0 -44.977484077058 C 24.84037854013146 -44.977484077058 44.977484077058 -24.84037854013146 44.977484077058 0 C 44.977484077058 24.84037854013146 24.84037854013146 44.977484077058 0 44.977484077058 C -24.84037854013146 44.977484077058 -44.977484077058 24.84037854013146 -44.977484077058 0 Z" fill-opacity="1"/><path fill="rgb(252,245,239)" stroke="none" paint-order="stroke fill markers" d=" M -44.977484077058 282.27099504870813 C -44.977484077058 257.4306165085767 -24.84037854013146 237.29351097165014 0 237.29351097165014 C 24.84037854013146 237.29351097165014 44.977484077058 257.4306165085767 44.977484077058 282.27099504870813 C 44.977484077058 307.11137358883957 24.84037854013146 327.24847912576615 0 327.24847912576615 C -24.84037854013146 327.24847912576615 -44.977484077058 307.11137358883957 -44.977484077058 282.27099504870813 Z" fill-opacity="1"/><path fill="rgb(252,245,239)" stroke="none" paint-order="stroke fill markers" d=" M -44.977484077058 564.5419900974163 C -44.977484077058 539.7016115572848 -24.84037854013146 519.5645060203583 0 519.5645060203583 C 24.84037854013146 519.5645060203583 44.977484077058 539.7016115572848 44.977484077058 564.5419900974163 C 44.977484077058 589.3823686375478 24.84037854013146 609.5194741744743 0 609.5194741744743 C -24.84037854013146 609.5194741744743 -44.977484077058 589.3823686375478 -44.977484077058 564.5419900974163 Z" fill-opacity="1"/><path fill="rgb(252,245,239)" stroke="none" paint-order="stroke fill markers" d=" M 96.15801344729607 0 C 96.15801344729607 -24.84037854013146 116.2951189842226 -44.977484077058 141.13549752435407 -44.977484077058 C 165.97587606448553 -44.977484077058 186.11298160141206 -24.84037854013146 186.11298160141206 0 C 186.11298160141206 24.84037854013146 165.97587606448553 44.977484077058 141.13549752435407 44.977484077058 C 116.2951189842226 44.977484077058 96.15801344729607 24.84037854013146 96.15801344729607 0 Z" fill-opacity="1"/><path fill="rgb(252,245,239)" stroke="none" paint-order="stroke fill markers" d=" M 96.15801344729607 282.27099504870813 C 96.15801344729607 257.4306165085767 116.2951189842226 237.29351097165014 141.13549752435407 237.29351097165014 C 165.97587606448553 237.29351097165014 186.11298160141206 257.4306165085767 186.11298160141206 282.27099504870813 C 186.11298160141206 307.11137358883957 165.97587606448553 327.24847912576615 141.13549752435407 327.24847912576615 C 116.2951189842226 327.24847912576615 96.15801344729607 307.11137358883957 96.15801344729607 282.27099504870813 Z" fill-opacity="1"/><path fill="rgb(252,245,239)" stroke="none" paint-order="stroke fill markers" d=" M 96.15801344729607 564.5419900974163 C 96.15801344729607 539.7016115572848 116.2951189842226 519.5645060203583 141.13549752435407 519.5645060203583 C 165.97587606448553 519.5645060203583 186.11298160141206 539.7016115572848 186.11298160141206 564.5419900974163 C 186.11298160141206 589.3823686375478 165.97587606448553 609.5194741744743 141.13549752435407 609.5194741744743 C 116.2951189842226 609.5194741744743 96.15801344729607 589.3823686375478 96.15801344729607 564.5419900974163 Z" fill-opacity="1"/><path fill="rgb(252,245,239)" stroke="none" paint-order="stroke fill markers" d=" M 237.29351097165014 0 C 237.29351097165014 -24.84037854013146 257.4306165085767 -44.977484077058 282.27099504870813 -44.977484077058 C 307.11137358883957 -44.977484077058 327.24847912576615 -24.84037854013146 327.24847912576615 0 C 327.24847912576615 24.84037854013146 307.11137358883957 44.977484077058 282.27099504870813 44.977484077058 C 257.4306165085767 44.977484077058 237.29351097165014 24.84037854013146 237.29351097165014 0 Z" fill-opacity="1"/><path fill="rgb(252,245,239)" stroke="none" paint-order="stroke fill markers" d=" M 237.29351097165014 282.27099504870813 C 237.29351097165014 257.4306165085767 257.4306165085767 237.29351097165014 282.27099504870813 237.29351097165014 C 307.11137358883957 237.29351097165014 327.24847912576615 257.4306165085767 327.24847912576615 282.27099504870813 C 327.24847912576615 307.11137358883957 307.11137358883957 327.24847912576615 282.27099504870813 327.24847912576615 C 257.4306165085767 327.24847912576615 237.29351097165014 307.11137358883957 237.29351097165014 282.27099504870813 Z" fill-opacity="1"/><path fill="rgb(252,245,239)" stroke="none" paint-order="stroke fill markers" d=" M 237.29351097165014 564.5419900974163 C 237.29351097165014 539.7016115572848 257.4306165085767 519.5645060203583 282.27099504870813 519.5645060203583 C 307.11137358883957 519.5645060203583 327.24847912576615 539.7016115572848 327.24847912576615 564.5419900974163 C 327.24847912576615 589.3823686375478 307.11137358883957 609.5194741744743 282.27099504870813 609.5194741744743 C 257.4306165085767 609.5194741744743 237.29351097165014 589.3823686375478 237.29351097165014 564.5419900974163 Z" fill-opacity="1"/><path fill="rgb(252,245,239)" stroke="none" paint-order="stroke fill markers" d=" M 378.4290084960042 0 C 378.4290084960042 -24.84037854013146 398.5661140329308 -44.977484077058 423.4064925730622 -44.977484077058 C 448.24687111319366 -44.977484077058 468.3839766501202 -24.84037854013146 468.3839766501202 0 C 468.3839766501202 24.84037854013146 448.24687111319366 44.977484077058 423.4064925730622 44.977484077058 C 398.5661140329308 44.977484077058 378.4290084960042 24.84037854013146 378.4290084960042 0 Z" fill-opacity="1"/><path fill="rgb(252,245,239)" stroke="none" paint-order="stroke fill markers" d=" M 378.4290084960042 282.27099504870813 C 378.4290084960042 257.4306165085767 398.5661140329308 237.29351097165014 423.4064925730622 237.29351097165014 C 448.24687111319366 237.29351097165014 468.3839766501202 257.4306165085767 468.3839766501202 282.27099504870813 C 468.3839766501202 307.11137358883957 448.24687111319366 327.24847912576615 423.4064925730622 327.24847912576615 C 398.5661140329308 327.24847912576615 378.4290084960042 307.11137358883957 378.4290084960042 282.27099504870813 Z" fill-opacity="1"/><path fill="rgb(252,245,239)" stroke="none" paint-order="stroke fill markers" d=" M 378.4290084960042 564.5419900974163 C 378.4290084960042 539.7016115572848 398.5661140329308 519.5645060203583 423.4064925730622 519.5645060203583 C 448.24687111319366 519.5645060203583 468.3839766501202 539.7016115572848 468.3839766501202 564.5419900974163 C 468.3839766501202 589.3823686375478 448.24687111319366 609.5194741744743 423.4064925730622 609.5194741744743 C 398.5661140329308 609.5194741744743 378.4290084960042 589.3823686375478 378.4290084960042 564.5419900974163 Z" fill-opacity="1"/><path fill="rgb(252,245,239)" stroke="none" paint-order="stroke fill markers" d=" M 519.5645060203583 0 C 519.5645060203583 -24.84037854013146 539.7016115572848 -44.977484077058 564.5419900974163 -44.977484077058 C 589.3823686375478 -44.977484077058 609.5194741744743 -24.84037854013146 609.5194741744743 0 C 609.5194741744743 24.84037854013146 589.3823686375478 44.977484077058 564.5419900974163 44.977484077058 C 539.7016115572848 44.977484077058 519.5645060203583 24.84037854013146 519.5645060203583 0 Z" fill-opacity="1"/><path fill="rgb(252,245,239)" stroke="none" paint-order="stroke fill markers" d=" M 519.5645060203583 282.27099504870813 C 519.5645060203583 257.4306165085767 539.7016115572848 237.29351097165014 564.5419900974163 237.29351097165014 C 589.3823686375478 237.29351097165014 609.5194741744743 257.4306165085767 609.5194741744743 282.27099504870813 C 609.5194741744743 307.11137358883957 589.3823686375478 327.24847912576615 564.5419900974163 327.24847912576615 C 539.7016115572848 327.24847912576615 519.5645060203583 307.11137358883957 519.5645060203583 282.27099504870813 Z" fill-opacity="1"/><path fill="rgb(252,245,239)" stroke="none" paint-order="stroke fill markers" d=" M 519.5645060203583 564.5419900974163 C 519.5645060203583 539.7016115572848 539.7016115572848 519.5645060203583 564.5419900974163 519.5645060203583 C 589.3823686375478 519.5645060203583 609.5194741744743 539.7016115572848 609.5194741744743 564.5419900974163 C 609.5194741744743 589.3823686375478 589.3823686375478 609.5194741744743 564.5419900974163 609.5194741744743 C 539.7016115572848 609.5194741744743 519.5645060203583 589.3823686375478 519.5645060203583 564.5419900974163 Z" fill-opacity="1"/><path fill="rgb(252,245,239)" stroke="none" paint-order="stroke fill markers" d=" M 660.7000035447123 0 C 660.7000035447123 -24.84037854013146 680.8371090816388 -44.977484077058 705.6774876217703 -44.977484077058 C 730.5178661619018 -44.977484077058 750.6549716988284 -24.84037854013146 750.6549716988284 0 C 750.6549716988284 24.84037854013146 730.5178661619018 44.977484077058 705.6774876217703 44.977484077058 C 680.8371090816388 44.977484077058 660.7000035447123 24.84037854013146 660.7000035447123 0 Z" fill-opacity="1"/><path fill="rgb(252,245,239)" stroke="none" paint-order="stroke fill markers" d=" M 660.7000035447123 282.27099504870813 C 660.7000035447123 257.4306165085767 680.8371090816388 237.29351097165014 705.6774876217703 237.29351097165014 C 730.5178661619018 237.29351097165014 750.6549716988284 257.4306165085767 750.6549716988284 282.27099504870813 C 750.6549716988284 307.11137358883957 730.5178661619018 327.24847912576615 705.6774876217703 327.24847912576615 C 680.8371090816388 327.24847912576615 660.7000035447123 307.11137358883957 660.7000035447123 282.27099504870813 Z" fill-opacity="1"/><path fill="rgb(252,245,239)" stroke="none" paint-order="stroke fill markers" d=" M 660.7000035447123 564.5419900974163 C 660.7000035447123 539.7016115572848 680.8371090816388 519.5645060203583 705.6774876217703 519.5645060203583 C 730.5178661619018 519.5645060203583 750.6549716988284 539.7016115572848 750.6549716988284 564.5419900974163 C 750.6549716988284 589.3823686375478 730.5178661619018 609.5194741744743 705.6774876217703 609.5194741744743 C 680.8371090816388 609.5194741744743 660.7000035447123 589.3823686375478 660.7000035447123 564.5419900974163 Z" fill-opacity="1"/><path fill="rgb(252,245,239)" stroke="none" paint-order="stroke fill markers" d=" M 801.8355010690664 0 C 801.8355010690664 -24.84037854013146 821.9726066059928 -44.977484077058 846.8129851461243 -44.977484077058 C 871.6533636862558 -44.977484077058 891.7904692231824 -24.84037854013146 891.7904692231824 0 C 891.7904692231824 24.84037854013146 871.6533636862558 44.977484077058 846.8129851461243 44.977484077058 C 821.9726066059928 44.977484077058 801.8355010690664 24.84037854013146 801.8355010690664 0 Z" fill-opacity="1"/><path fill="rgb(252,245,239)" stroke="none" paint-order="stroke fill markers" d=" M 801.8355010690664 282.27099504870813 C 801.8355010690664 257.4306165085767 821.9726066059928 237.29351097165014 846.8129851461243 237.29351097165014 C 871.6533636862558 237.29351097165014 891.7904692231824 257.4306165085767 891.7904692231824 282.27099504870813 C 891.7904692231824 307.11137358883957 871.6533636862558 327.24847912576615 846.8129851461243 327.24847912576615 C 821.9726066059928 327.24847912576615 801.8355010690664 307.11137358883957 801.8355010690664 282.27099504870813 Z" fill-opacity="1"/><path fill="rgb(252,245,239)" stroke="none" paint-order="stroke fill markers" d=" M 801.8355010690664 564.5419900974163 C 801.8355010690664 539.7016115572848 821.9726066059928 519.5645060203583 846.8129851461243 519.5645060203583 C 871.6533636862558 519.5645060203583 891.7904692231824 539.7016115572848 891.7904692231824 564.5419900974163 C 891.7904692231824 589.3823686375478 871.6533636862558 609.5194741744743 846.8129851461243 609.5194741744743 C 821.9726066059928 609.5194741744743 801.8355010690664 589.3823686375478 801.8355010690664 564.5419900974163 Z" fill-opacity="1"/><path fill="rgb(252,245,239)" stroke="none" paint-order="stroke fill markers" d=" M 942.9709985934204 0 C 942.9709985934204 -24.84037854013146 963.1081041303469 -44.977484077058 987.9484826704784 -44.977484077058 C 1012.7888612106099 -44.977484077058 1032.9259667475364 -24.84037854013146 1032.9259667475364 0 C 1032.9259667475364 24.84037854013146 1012.7888612106099 44.977484077058 987.9484826704784 44.977484077058 C 963.1081041303469 44.977484077058 942.9709985934204 24.84037854013146 942.9709985934204 0 Z" fill-opacity="1"/><path fill="rgb(252,245,239)" stroke="none" paint-order="stroke fill markers" d=" M 942.9709985934204 282.27099504870813 C 942.9709985934204 257.4306165085767 963.1081041303469 237.29351097165014 987.9484826704784 237.29351097165014 C 1012.7888612106099 237.29351097165014 1032.9259667475364 257.4306165085767 1032.9259667475364 282.27099504870813 C 1032.9259667475364 307.11137358883957 1012.7888612106099 327.24847912576615 987.9484826704784 327.24847912576615 C 963.1081041303469 327.24847912576615 942.9709985934204 307.11137358883957 942.9709985934204 282.27099504870813 Z" fill-opacity="1"/><path fill="rgb(252,245,239)" stroke="none" paint-order="stroke fill markers" d=" M 942.9709985934204 564.5419900974163 C 942.9709985934204 539.7016115572848 963.1081041303469 519.5645060203583 987.9484826704784 519.5645060203583 C 1012.7888612106099 519.5645060203583 1032.9259667475364 539.7016115572848 1032.9259667475364 564.5419900974163 C 1032.9259667475364 589.3823686375478 1012.7888612106099 609.5194741744743 987.9484826704784 609.5194741744743 C 963.1081041303469 609.5194741744743 942.9709985934204 589.3823686375478 942.9709985934204 564.5419900974163 Z" fill-opacity="1"/><path fill="rgb(252,245,239)" stroke="none" paint-order="stroke fill markers" d=" M 1084.1064961177744 0 C 1084.1064961177744 -24.84037854013146 1104.243601654701 -44.977484077058 1129.0839801948325 -44.977484077058 C 1153.924358734964 -44.977484077058 1174.0614642718904 -24.84037854013146 1174.0614642718904 0 C 1174.0614642718904 24.84037854013146 1153.924358734964 44.977484077058 1129.0839801948325 44.977484077058 C 1104.243601654701 44.977484077058 1084.1064961177744 24.84037854013146 1084.1064961177744 0 Z" fill-opacity="1"/><path fill="rgb(252,245,239)" stroke="none" paint-order="stroke fill markers" d=" M 1084.1064961177744 282.27099504870813 C 1084.1064961177744 257.4306165085767 1104.243601654701 237.29351097165014 1129.0839801948325 237.29351097165014 C 1153.924358734964 237.29351097165014 1174.0614642718904 257.4306165085767 1174.0614642718904 282.27099504870813 C 1174.0614642718904 307.11137358883957 1153.924358734964 327.24847912576615 1129.0839801948325 327.24847912576615 C 1104.243601654701 327.24847912576615 1084.1064961177744 307.11137358883957 1084.1064961177744 282.27099504870813 Z" fill-opacity="1"/><path fill="rgb(252,245,239)" stroke="none" paint-order="stroke fill markers" d=" M 1084.1064961177744 564.5419900974163 C 1084.1064961177744 539.7016115572848 1104.243601654701 519.5645060203583 1129.0839801948325 519.5645060203583 C 1153.924358734964 519.5645060203583 1174.0614642718904 539.7016115572848 1174.0614642718904 564.5419900974163 C 1174.0614642718904 589.3823686375478 1153.924358734964 609.5194741744743 1129.0839801948325 609.5194741744743 C 1104.243601654701 609.5194741744743 1084.1064961177744 589.3823686375478 1084.1064961177744 564.5419900974163 Z" fill-opacity="1"/><path fill="rgb(252,245,239)" stroke="none" paint-order="stroke fill markers" d=" M 1225.2419936421286 0 C 1225.2419936421286 -24.84037854013146 1245.3790991790552 -44.977484077058 1270.2194777191867 -44.977484077058 C 1295.0598562593182 -44.977484077058 1315.1969617962445 -24.84037854013146 1315.1969617962445 0 C 1315.1969617962445 24.84037854013146 1295.0598562593182 44.977484077058 1270.2194777191867 44.977484077058 C 1245.3790991790552 44.977484077058 1225.2419936421286 24.84037854013146 1225.2419936421286 0 Z" fill-opacity="1"/><path fill="rgb(252,245,239)" stroke="none" paint-order="stroke fill markers" d=" M 1225.2419936421286 282.27099504870813 C 1225.2419936421286 257.4306165085767 1245.3790991790552 237.29351097165014 1270.2194777191867 237.29351097165014 C 1295.0598562593182 237.29351097165014 1315.1969617962445 257.4306165085767 1315.1969617962445 282.27099504870813 C 1315.1969617962445 307.11137358883957 1295.0598562593182 327.24847912576615 1270.2194777191867 327.24847912576615 C 1245.3790991790552 327.24847912576615 1225.2419936421286 307.11137358883957 1225.2419936421286 282.27099504870813 Z" fill-opacity="1"/><path fill="rgb(252,245,239)" stroke="none" paint-order="stroke fill markers" d=" M 1225.2419936421286 564.5419900974163 C 1225.2419936421286 539.7016115572848 1245.3790991790552 519.5645060203583 1270.2194777191867 519.5645060203583 C 1295.0598562593182 519.5645060203583 1315.1969617962445 539.7016115572848 1315.1969617962445 564.5419900974163 C 1315.1969617962445 589.3823686375478 1295.0598562593182 609.5194741744743 1270.2194777191867 609.5194741744743 C 1245.3790991790552 609.5194741744743 1225.2419936421286 589.3823686375478 1225.2419936421286 564.5419900974163 Z" fill-opacity="1"/><path fill="rgb(252,245,239)" stroke="none" paint-order="stroke fill markers" d=" M 1366.3774911664827 0 C 1366.3774911664827 -24.84037854013146 1386.5145967034093 -44.977484077058 1411.3549752435408 -44.977484077058 C 1436.1953537836723 -44.977484077058 1456.3324593205987 -24.84037854013146 1456.3324593205987 0 C 1456.3324593205987 24.84037854013146 1436.1953537836723 44.977484077058 1411.3549752435408 44.977484077058 C 1386.5145967034093 44.977484077058 1366.3774911664827 24.84037854013146 1366.3774911664827 0 Z" fill-opacity="1"/><path fill="rgb(252,245,239)" stroke="none" paint-order="stroke fill markers" d=" M 1366.3774911664827 282.27099504870813 C 1366.3774911664827 257.4306165085767 1386.5145967034093 237.29351097165014 1411.3549752435408 237.29351097165014 C 1436.1953537836723 237.29351097165014 1456.3324593205987 257.4306165085767 1456.3324593205987 282.27099504870813 C 1456.3324593205987 307.11137358883957 1436.1953537836723 327.24847912576615 1411.3549752435408 327.24847912576615 C 1386.5145967034093 327.24847912576615 1366.3774911664827 307.11137358883957 1366.3774911664827 282.27099504870813 Z" fill-opacity="1"/><path fill="rgb(252,245,239)" stroke="none" paint-order="stroke fill markers" d=" M 1366.3774911664827 564.5419900974163 C 1366.3774911664827 539.7016115572848 1386.5145967034093 519.5645060203583 1411.3549752435408 519.5645060203583 C 1436.1953537836723 519.5645060203583 1456.3324593205987 539.7016115572848 1456.3324593205987 564.5419900974163 C 1456.3324593205987 589.3823686375478 1436.1953537836723 609.5194741744743 1411.3549752435408 609.5194741744743 C 1386.5145967034093 609.5194741744743 1366.3774911664827 589.3823686375478 1366.3774911664827 564.5419900974163 Z" fill-opacity="1"/><path fill="rgb(109,181,203)" stroke="none" paint-order="stroke fill markers" d=" M -44.977484077058 141.13549752435407 C -44.977484077058 116.2951189842226 -24.84037854013146 96.15801344729607 0 96.15801344729607 C 24.84037854013146 96.15801344729607 44.977484077058 116.2951189842226 44.977484077058 141.13549752435407 C 44.977484077058 165.97587606448553 24.84037854013146 186.11298160141206 0 186.11298160141206 C -24.84037854013146 186.11298160141206 -44.977484077058 165.97587606448553 -44.977484077058 141.13549752435407 Z" fill-opacity="1"/><path fill="rgb(109,181,203)" stroke="none" paint-order="stroke fill markers" d=" M -44.977484077058 423.4064925730622 C -44.977484077058 398.5661140329308 -24.84037854013146 378.4290084960042 0 378.4290084960042 C 24.84037854013146 378.4290084960042 44.977484077058 398.5661140329308 44.977484077058 423.4064925730622 C 44.977484077058 448.24687111319366 24.84037854013146 468.3839766501202 0 468.3839766501202 C -24.84037854013146 468.3839766501202 -44.977484077058 448.24687111319366 -44.977484077058 423.4064925730622 Z" fill-opacity="1"/><path fill="rgb(109,181,203)" stroke="none" paint-order="stroke fill markers" d=" M 155.022515922942 141.13549752435407 C 155.022515922942 116.2951189842226 175.15962145986853 96.15801344729607 200 96.15801344729607 C 224.84037854013147 96.15801344729607 244.97748407705802 116.2951189842226 244.97748407705802 141.13549752435407 C 244.97748407705802 165.97587606448553 224.84037854013147 186.11298160141206 200 186.11298160141206 C 175.15962145986853 186.11298160141206 155.022515922942 165.97587606448553 155.022515922942 141.13549752435407 Z" fill-opacity="1"/><path fill="rgb(109,181,203)" stroke="none" paint-order="stroke fill markers" d=" M 155.022515922942 423.4064925730622 C 155.022515922942 398.5661140329308 175.15962145986853 378.4290084960042 200 378.4290084960042 C 224.84037854013147 378.4290084960042 244.97748407705802 398.5661140329308 244.97748407705802 423.4064925730622 C 244.97748407705802 448.24687111319366 224.84037854013147 468.3839766501202 200 468.3839766501202 C 175.15962145986853 468.3839766501202 155.022515922942 448.24687111319366 155.022515922942 423.4064925730622 Z" fill-opacity="1"/><path fill="rgb(109,181,203)" stroke="none" paint-order="stroke fill markers" d=" M 355.022515922942 141.13549752435407 C 355.022515922942 116.2951189842226 375.15962145986856 96.15801344729607 400 96.15801344729607 C 424.84037854013144 96.15801344729607 444.97748407705797 116.2951189842226 444.97748407705797 141.13549752435407 C 444.97748407705797 165.97587606448553 424.84037854013144 186.11298160141206 400 186.11298160141206 C 375.15962145986856 186.11298160141206 355.022515922942 165.97587606448553 355.022515922942 141.13549752435407 Z" fill-opacity="1"/><path fill="rgb(109,181,203)" stroke="none" paint-order="stroke fill markers" d=" M 355.022515922942 423.4064925730622 C 355.022515922942 398.5661140329308 375.15962145986856 378.4290084960042 400 378.4290084960042 C 424.84037854013144 378.4290084960042 444.97748407705797 398.5661140329308 444.97748407705797 423.4064925730622 C 444.97748407705797 448.24687111319366 424.84037854013144 468.3839766501202 400 468.3839766501202 C 375.15962145986856 468.3839766501202 355.022515922942 448.24687111319366 355.022515922942 423.4064925730622 Z" fill-opacity="1"/><path fill="rgb(109,181,203)" stroke="none" paint-order="stroke fill markers" d=" M 555.022515922942 141.13549752435407 C 555.022515922942 116.2951189842226 575.1596214598685 96.15801344729607 600 96.15801344729607 C 624.8403785401315 96.15801344729607 644.9774840770581 116.2951189842226 644.9774840770581 141.13549752435407 C 644.9774840770581 165.97587606448553 624.8403785401315 186.11298160141206 600 186.11298160141206 C 575.1596214598685 186.11298160141206 555.022515922942 165.97587606448553 555.022515922942 141.13549752435407 Z" fill-opacity="1"/><path fill="rgb(109,181,203)" stroke="none" paint-order="stroke fill markers" d=" M 555.022515922942 423.4064925730622 C 555.022515922942 398.5661140329308 575.1596214598685 378.4290084960042 600 378.4290084960042 C 624.8403785401315 378.4290084960042 644.9774840770581 398.5661140329308 644.9774840770581 423.4064925730622 C 644.9774840770581 448.24687111319366 624.8403785401315 468.3839766501202 600 468.3839766501202 C 575.1596214598685 468.3839766501202 555.022515922942 448.24687111319366 555.022515922942 423.4064925730622 Z" fill-opacity="1"/><path fill="rgb(109,181,203)" stroke="none" paint-order="stroke fill markers" d=" M 755.022515922942 141.13549752435407 C 755.022515922942 116.2951189842226 775.1596214598685 96.15801344729607 800 96.15801344729607 C 824.8403785401315 96.15801344729607 844.9774840770581 116.2951189842226 844.9774840770581 141.13549752435407 C 844.9774840770581 165.97587606448553 824.8403785401315 186.11298160141206 800 186.11298160141206 C 775.1596214598685 186.11298160141206 755.022515922942 165.97587606448553 755.022515922942 141.13549752435407 Z" fill-opacity="1"/><path fill="rgb(109,181,203)" stroke="none" paint-order="stroke fill markers" d=" M 755.022515922942 423.4064925730622 C 755.022515922942 398.5661140329308 775.1596214598685 378.4290084960042 800 378.4290084960042 C 824.8403785401315 378.4290084960042 844.9774840770581 398.5661140329308 844.9774840770581 423.4064925730622 C 844.9774840770581 448.24687111319366 824.8403785401315 468.3839766501202 800 468.3839766501202 C 775.1596214598685 468.3839766501202 755.022515922942 448.24687111319366 755.022515922942 423.4064925730622 Z" fill-opacity="1"/><path fill="rgb(109,181,203)" stroke="none" paint-order="stroke fill markers" d=" M 955.022515922942 141.13549752435407 C 955.022515922942 116.2951189842226 975.1596214598685 96.15801344729607 1000 96.15801344729607 C 1024.8403785401315 96.15801344729607 1044.977484077058 116.2951189842226 1044.977484077058 141.13549752435407 C 1044.977484077058 165.97587606448553 1024.8403785401315 186.11298160141206 1000 186.11298160141206 C 975.1596214598685 186.11298160141206 955.022515922942 165.97587606448553 955.022515922942 141.13549752435407 Z" fill-opacity="1"/><path fill="rgb(109,181,203)" stroke="none" paint-order="stroke fill markers" d=" M 955.022515922942 423.4064925730622 C 955.022515922942 398.5661140329308 975.1596214598685 378.4290084960042 1000 378.4290084960042 C 1024.8403785401315 378.4290084960042 1044.977484077058 398.5661140329308 1044.977484077058 423.4064925730622 C 1044.977484077058 448.24687111319366 1024.8403785401315 468.3839766501202 1000 468.3839766501202 C 975.1596214598685 468.3839766501202 955.022515922942 448.24687111319366 955.022515922942 423.4064925730622 Z" fill-opacity="1"/><path fill="rgb(109,181,203)" stroke="none" paint-order="stroke fill markers" d=" M 1155.022515922942 141.13549752435407 C 1155.022515922942 116.2951189842226 1175.1596214598685 96.15801344729607 1200 96.15801344729607 C 1224.8403785401315 96.15801344729607 1244.9774840770579 116.2951189842226 1244.9774840770579 141.13549752435407 C 1244.9774840770579 165.97587606448553 1224.8403785401315 186.11298160141206 1200 186.11298160141206 C 1175.1596214598685 186.11298160141206 1155.022515922942 165.97587606448553 1155.022515922942 141.13549752435407 Z" fill-opacity="1"/><path fill="rgb(109,181,203)" stroke="none" paint-order="stroke fill markers" d=" M 1155.022515922942 423.4064925730622 C 1155.022515922942 398.5661140329308 1175.1596214598685 378.4290084960042 1200 378.4290084960042 C 1224.8403785401315 378.4290084960042 1244.9774840770579 398.5661140329308 1244.9774840770579 423.4064925730622 C 1244.9774840770579 448.24687111319366 1224.8403785401315 468.3839766501202 1200 468.3839766501202 C 1175.1596214598685 468.3839766501202 1155.022515922942 448.24687111319366 1155.022515922942 423.4064925730622 Z" fill-opacity="1"/><path fill="rgb(109,181,203)" stroke="none" paint-order="stroke fill markers" d=" M 1355.022515922942 141.13549752435407 C 1355.022515922942 116.2951189842226 1375.1596214598685 96.15801344729607 1400 96.15801344729607 C 1424.8403785401315 96.15801344729607 1444.9774840770579 116.2951189842226 1444.9774840770579 141.13549752435407 C 1444.9774840770579 165.97587606448553 1424.8403785401315 186.11298160141206 1400 186.11298160141206 C 1375.1596214598685 186.11298160141206 1355.022515922942 165.97587606448553 1355.022515922942 141.13549752435407 Z" fill-opacity="1"/><path fill="rgb(109,181,203)" stroke="none" paint-order="stroke fill markers" d=" M 1355.022515922942 423.4064925730622 C 1355.022515922942 398.5661140329308 1375.1596214598685 378.4290084960042 1400 378.4290084960042 C 1424.8403785401315 378.4290084960042 1444.9774840770579 398.5661140329308 1444.9774840770579 423.4064925730622 C 1444.9774840770579 448.24687111319366 1424.8403785401315 468.3839766501202 1400 468.3839766501202 C 1375.1596214598685 468.3839766501202 1355.022515922942 448.24687111319366 1355.022515922942 423.4064925730622 Z" fill-opacity="1"/><path fill="rgb(183,216,223)" stroke="none" paint-order="stroke fill markers" d=" M -19.64019328320616 141.13549752435407 C -19.64019328320616 130.2885182909149 -10.846979233439153 121.4953042411479 0 121.4953042411479 C 10.846979233439153 121.4953042411479 19.64019328320616 130.2885182909149 19.64019328320616 141.13549752435407 C 19.64019328320616 151.98247675779322 10.846979233439153 160.77569080756024 0 160.77569080756024 C -10.846979233439153 160.77569080756024 -19.64019328320616 151.98247675779322 -19.64019328320616 141.13549752435407 Z" fill-opacity="1"/><path fill="rgb(183,216,223)" stroke="none" paint-order="stroke fill markers" d=" M -19.64019328320616 423.4064925730622 C -19.64019328320616 412.5595133396231 -10.846979233439153 403.7662992898561 0 403.7662992898561 C 10.846979233439153 403.7662992898561 19.64019328320616 412.5595133396231 19.64019328320616 423.4064925730622 C 19.64019328320616 434.25347180650135 10.846979233439153 443.04668585626837 0 443.04668585626837 C -10.846979233439153 443.04668585626837 -19.64019328320616 434.25347180650135 -19.64019328320616 423.4064925730622 Z" fill-opacity="1"/><path fill="rgb(183,216,223)" stroke="none" paint-order="stroke fill markers" d=" M 121.4953042411479 141.13549752435407 C 121.4953042411479 130.2885182909149 130.2885182909149 121.4953042411479 141.13549752435407 121.4953042411479 C 151.98247675779322 121.4953042411479 160.77569080756024 130.2885182909149 160.77569080756024 141.13549752435407 C 160.77569080756024 151.98247675779322 151.98247675779322 160.77569080756024 141.13549752435407 160.77569080756024 C 130.2885182909149 160.77569080756024 121.4953042411479 151.98247675779322 121.4953042411479 141.13549752435407 Z" fill-opacity="1"/><path fill="rgb(183,216,223)" stroke="none" paint-order="stroke fill markers" d=" M 121.4953042411479 423.4064925730622 C 121.4953042411479 412.5595133396231 130.2885182909149 403.7662992898561 141.13549752435407 403.7662992898561 C 151.98247675779322 403.7662992898561 160.77569080756024 412.5595133396231 160.77569080756024 423.4064925730622 C 160.77569080756024 434.25347180650135 151.98247675779322 443.04668585626837 141.13549752435407 443.04668585626837 C 130.2885182909149 443.04668585626837 121.4953042411479 434.25347180650135 121.4953042411479 423.4064925730622 Z" fill-opacity="1"/><path fill="rgb(183,216,223)" stroke="none" paint-order="stroke fill markers" d=" M 262.630801765502 141.13549752435407 C 262.630801765502 130.2885182909149 271.424015815269 121.4953042411479 282.27099504870813 121.4953042411479 C 293.11797428214726 121.4953042411479 301.91118833191433 130.2885182909149 301.91118833191433 141.13549752435407 C 301.91118833191433 151.98247675779322 293.11797428214726 160.77569080756024 282.27099504870813 160.77569080756024 C 271.424015815269 160.77569080756024 262.630801765502 151.98247675779322 262.630801765502 141.13549752435407 Z" fill-opacity="1"/><path fill="rgb(183,216,223)" stroke="none" paint-order="stroke fill markers" d=" M 262.630801765502 423.4064925730622 C 262.630801765502 412.5595133396231 271.424015815269 403.7662992898561 282.27099504870813 403.7662992898561 C 293.11797428214726 403.7662992898561 301.91118833191433 412.5595133396231 301.91118833191433 423.4064925730622 C 301.91118833191433 434.25347180650135 293.11797428214726 443.04668585626837 282.27099504870813 443.04668585626837 C 271.424015815269 443.04668585626837 262.630801765502 434.25347180650135 262.630801765502 423.4064925730622 Z" fill-opacity="1"/><path fill="rgb(183,216,223)" stroke="none" paint-order="stroke fill markers" d=" M 403.7662992898561 141.13549752435407 C 403.7662992898561 130.2885182909149 412.5595133396231 121.4953042411479 423.4064925730622 121.4953042411479 C 434.25347180650135 121.4953042411479 443.04668585626837 130.2885182909149 443.04668585626837 141.13549752435407 C 443.04668585626837 151.98247675779322 434.25347180650135 160.77569080756024 423.4064925730622 160.77569080756024 C 412.5595133396231 160.77569080756024 403.7662992898561 151.98247675779322 403.7662992898561 141.13549752435407 Z" fill-opacity="1"/><path fill="rgb(183,216,223)" stroke="none" paint-order="stroke fill markers" d=" M 403.7662992898561 423.4064925730622 C 403.7662992898561 412.5595133396231 412.5595133396231 403.7662992898561 423.4064925730622 403.7662992898561 C 434.25347180650135 403.7662992898561 443.04668585626837 412.5595133396231 443.04668585626837 423.4064925730622 C 443.04668585626837 434.25347180650135 434.25347180650135 443.04668585626837 423.4064925730622 443.04668585626837 C 412.5595133396231 443.04668585626837 403.7662992898561 434.25347180650135 403.7662992898561 423.4064925730622 Z" fill-opacity="1"/><path fill="rgb(183,216,223)" stroke="none" paint-order="stroke fill markers" d=" M 544.9017968142101 141.13549752435407 C 544.9017968142101 130.2885182909149 553.6950108639771 121.4953042411479 564.5419900974163 121.4953042411479 C 575.3889693308554 121.4953042411479 584.1821833806224 130.2885182909149 584.1821833806224 141.13549752435407 C 584.1821833806224 151.98247675779322 575.3889693308554 160.77569080756024 564.5419900974163 160.77569080756024 C 553.6950108639771 160.77569080756024 544.9017968142101 151.98247675779322 544.9017968142101 141.13549752435407 Z" fill-opacity="1"/><path fill="rgb(183,216,223)" stroke="none" paint-order="stroke fill markers" d=" M 544.9017968142101 423.4064925730622 C 544.9017968142101 412.5595133396231 553.6950108639771 403.7662992898561 564.5419900974163 403.7662992898561 C 575.3889693308554 403.7662992898561 584.1821833806224 412.5595133396231 584.1821833806224 423.4064925730622 C 584.1821833806224 434.25347180650135 575.3889693308554 443.04668585626837 564.5419900974163 443.04668585626837 C 553.6950108639771 443.04668585626837 544.9017968142101 434.25347180650135 544.9017968142101 423.4064925730622 Z" fill-opacity="1"/><path fill="rgb(183,216,223)" stroke="none" paint-order="stroke fill markers" d=" M 686.0372943385642 141.13549752435407 C 686.0372943385642 130.2885182909149 694.8305083883312 121.4953042411479 705.6774876217703 121.4953042411479 C 716.5244668552094 121.4953042411479 725.3176809049764 130.2885182909149 725.3176809049764 141.13549752435407 C 725.3176809049764 151.98247675779322 716.5244668552094 160.77569080756024 705.6774876217703 160.77569080756024 C 694.8305083883312 160.77569080756024 686.0372943385642 151.98247675779322 686.0372943385642 141.13549752435407 Z" fill-opacity="1"/><path fill="rgb(183,216,223)" stroke="none" paint-order="stroke fill markers" d=" M 686.0372943385642 423.4064925730622 C 686.0372943385642 412.5595133396231 694.8305083883312 403.7662992898561 705.6774876217703 403.7662992898561 C 716.5244668552094 403.7662992898561 725.3176809049764 412.5595133396231 725.3176809049764 423.4064925730622 C 725.3176809049764 434.25347180650135 716.5244668552094 443.04668585626837 705.6774876217703 443.04668585626837 C 694.8305083883312 443.04668585626837 686.0372943385642 434.25347180650135 686.0372943385642 423.4064925730622 Z" fill-opacity="1"/><path fill="rgb(183,216,223)" stroke="none" paint-order="stroke fill markers" d=" M 827.1727918629182 141.13549752435407 C 827.1727918629182 130.2885182909149 835.9660059126852 121.4953042411479 846.8129851461243 121.4953042411479 C 857.6599643795635 121.4953042411479 866.4531784293305 130.2885182909149 866.4531784293305 141.13549752435407 C 866.4531784293305 151.98247675779322 857.6599643795635 160.77569080756024 846.8129851461243 160.77569080756024 C 835.9660059126852 160.77569080756024 827.1727918629182 151.98247675779322 827.1727918629182 141.13549752435407 Z" fill-opacity="1"/><path fill="rgb(183,216,223)" stroke="none" paint-order="stroke fill markers" d=" M 827.1727918629182 423.4064925730622 C 827.1727918629182 412.5595133396231 835.9660059126852 403.7662992898561 846.8129851461243 403.7662992898561 C 857.6599643795635 403.7662992898561 866.4531784293305 412.5595133396231 866.4531784293305 423.4064925730622 C 866.4531784293305 434.25347180650135 857.6599643795635 443.04668585626837 846.8129851461243 443.04668585626837 C 835.9660059126852 443.04668585626837 827.1727918629182 434.25347180650135 827.1727918629182 423.4064925730622 Z" fill-opacity="1"/><path fill="rgb(183,216,223)" stroke="none" paint-order="stroke fill markers" d=" M 968.3082893872722 141.13549752435407 C 968.3082893872722 130.2885182909149 977.1015034370392 121.4953042411479 987.9484826704784 121.4953042411479 C 998.7954619039175 121.4953042411479 1007.5886759536845 130.2885182909149 1007.5886759536845 141.13549752435407 C 1007.5886759536845 151.98247675779322 998.7954619039175 160.77569080756024 987.9484826704784 160.77569080756024 C 977.1015034370392 160.77569080756024 968.3082893872722 151.98247675779322 968.3082893872722 141.13549752435407 Z" fill-opacity="1"/><path fill="rgb(183,216,223)" stroke="none" paint-order="stroke fill markers" d=" M 968.3082893872722 423.4064925730622 C 968.3082893872722 412.5595133396231 977.1015034370392 403.7662992898561 987.9484826704784 403.7662992898561 C 998.7954619039175 403.7662992898561 1007.5886759536845 412.5595133396231 1007.5886759536845 423.4064925730622 C 1007.5886759536845 434.25347180650135 998.7954619039175 443.04668585626837 987.9484826704784 443.04668585626837 C 977.1015034370392 443.04668585626837 968.3082893872722 434.25347180650135 968.3082893872722 423.4064925730622 Z" fill-opacity="1"/><path fill="rgb(183,216,223)" stroke="none" paint-order="stroke fill markers" d=" M 1109.4437869116264 141.13549752435407 C 1109.4437869116264 130.2885182909149 1118.2370009613933 121.4953042411479 1129.0839801948325 121.4953042411479 C 1139.9309594282718 121.4953042411479 1148.7241734780387 130.2885182909149 1148.7241734780387 141.13549752435407 C 1148.7241734780387 151.98247675779322 1139.9309594282718 160.77569080756024 1129.0839801948325 160.77569080756024 C 1118.2370009613933 160.77569080756024 1109.4437869116264 151.98247675779322 1109.4437869116264 141.13549752435407 Z" fill-opacity="1"/><path fill="rgb(183,216,223)" stroke="none" paint-order="stroke fill markers" d=" M 1109.4437869116264 423.4064925730622 C 1109.4437869116264 412.5595133396231 1118.2370009613933 403.7662992898561 1129.0839801948325 403.7662992898561 C 1139.9309594282718 403.7662992898561 1148.7241734780387 412.5595133396231 1148.7241734780387 423.4064925730622 C 1148.7241734780387 434.25347180650135 1139.9309594282718 443.04668585626837 1129.0839801948325 443.04668585626837 C 1118.2370009613933 443.04668585626837 1109.4437869116264 434.25347180650135 1109.4437869116264 423.4064925730622 Z" fill-opacity="1"/><path fill="rgb(183,216,223)" stroke="none" paint-order="stroke fill markers" d=" M 1250.5792844359805 141.13549752435407 C 1250.5792844359805 130.2885182909149 1259.3724984857474 121.4953042411479 1270.2194777191867 121.4953042411479 C 1281.066456952626 121.4953042411479 1289.8596710023928 130.2885182909149 1289.8596710023928 141.13549752435407 C 1289.8596710023928 151.98247675779322 1281.066456952626 160.77569080756024 1270.2194777191867 160.77569080756024 C 1259.3724984857474 160.77569080756024 1250.5792844359805 151.98247675779322 1250.5792844359805 141.13549752435407 Z" fill-opacity="1"/><path fill="rgb(183,216,223)" stroke="none" paint-order="stroke fill markers" d=" M 1250.5792844359805 423.4064925730622 C 1250.5792844359805 412.5595133396231 1259.3724984857474 403.7662992898561 1270.2194777191867 403.7662992898561 C 1281.066456952626 403.7662992898561 1289.8596710023928 412.5595133396231 1289.8596710023928 423.4064925730622 C 1289.8596710023928 434.25347180650135 1281.066456952626 443.04668585626837 1270.2194777191867 443.04668585626837 C 1259.3724984857474 443.04668585626837 1250.5792844359805 434.25347180650135 1250.5792844359805 423.4064925730622 Z" fill-opacity="1"/><path fill="rgb(183,216,223)" stroke="none" paint-order="stroke fill markers" d=" M 1391.7147819603347 141.13549752435407 C 1391.7147819603347 130.2885182909149 1400.5079960101016 121.4953042411479 1411.3549752435408 121.4953042411479 C 1422.20195447698 121.4953042411479 1430.995168526747 130.2885182909149 1430.995168526747 141.13549752435407 C 1430.995168526747 151.98247675779322 1422.20195447698 160.77569080756024 1411.3549752435408 160.77569080756024 C 1400.5079960101016 160.77569080756024 1391.7147819603347 151.98247675779322 1391.7147819603347 141.13549752435407 Z" fill-opacity="1"/><path fill="rgb(183,216,223)" stroke="none" paint-order="stroke fill markers" d=" M 1391.7147819603347 423.4064925730622 C 1391.7147819603347 412.5595133396231 1400.5079960101016 403.7662992898561 1411.3549752435408 403.7662992898561 C 1422.20195447698 403.7662992898561 1430.995168526747 412.5595133396231 1430.995168526747 423.4064925730622 C 1430.995168526747 434.25347180650135 1422.20195447698 443.04668585626837 1411.3549752435408 443.04668585626837 C 1400.5079960101016 443.04668585626837 1391.7147819603347 434.25347180650135 1391.7147819603347 423.4064925730622 Z" fill-opacity="1"/><path fill="rgb(183,216,223)" stroke="none" paint-order="stroke fill markers" d=" M -19.64019328320616 0 C -19.64019328320616 -10.846979233439153 -10.846979233439153 -19.64019328320616 0 -19.64019328320616 C 10.846979233439153 -19.64019328320616 19.64019328320616 -10.846979233439153 19.64019328320616 0 C 19.64019328320616 10.846979233439153 10.846979233439153 19.64019328320616 0 19.64019328320616 C -10.846979233439153 19.64019328320616 -19.64019328320616 10.846979233439153 -19.64019328320616 0 Z" fill-opacity="1"/><path fill="rgb(183,216,223)" stroke="none" paint-order="stroke fill markers" d=" M -19.64019328320616 282.27099504870813 C -19.64019328320616 271.424015815269 -10.846979233439153 262.630801765502 0 262.630801765502 C 10.846979233439153 262.630801765502 19.64019328320616 271.424015815269 19.64019328320616 282.27099504870813 C 19.64019328320616 293.11797428214726 10.846979233439153 301.91118833191433 0 301.91118833191433 C -10.846979233439153 301.91118833191433 -19.64019328320616 293.11797428214726 -19.64019328320616 282.27099504870813 Z" fill-opacity="1"/><path fill="rgb(183,216,223)" stroke="none" paint-order="stroke fill markers" d=" M -19.64019328320616 564.5419900974163 C -19.64019328320616 553.6950108639771 -10.846979233439153 544.9017968142101 0 544.9017968142101 C 10.846979233439153 544.9017968142101 19.64019328320616 553.6950108639771 19.64019328320616 564.5419900974163 C 19.64019328320616 575.3889693308554 10.846979233439153 584.1821833806224 0 584.1821833806224 C -10.846979233439153 584.1821833806224 -19.64019328320616 575.3889693308554 -19.64019328320616 564.5419900974163 Z" fill-opacity="1"/><path fill="rgb(183,216,223)" stroke="none" paint-order="stroke fill markers" d=" M 137.48135298244313 0 C 137.48135298244313 -10.846979233439153 146.27456703221011 -19.64019328320616 157.12154626564927 -19.64019328320616 C 167.96852549908843 -19.64019328320616 176.76173954885545 -10.846979233439153 176.76173954885545 0 C 176.76173954885545 10.846979233439153 167.96852549908843 19.64019328320616 157.12154626564927 19.64019328320616 C 146.27456703221011 19.64019328320616 137.48135298244313 10.846979233439153 137.48135298244313 0 Z" fill-opacity="1"/><path fill="rgb(183,216,223)" stroke="none" paint-order="stroke fill markers" d=" M 137.48135298244313 282.27099504870813 C 137.48135298244313 271.424015815269 146.27456703221011 262.630801765502 157.12154626564927 262.630801765502 C 167.96852549908843 262.630801765502 176.76173954885545 271.424015815269 176.76173954885545 282.27099504870813 C 176.76173954885545 293.11797428214726 167.96852549908843 301.91118833191433 157.12154626564927 301.91118833191433 C 146.27456703221011 301.91118833191433 137.48135298244313 293.11797428214726 137.48135298244313 282.27099504870813 Z" fill-opacity="1"/><path fill="rgb(183,216,223)" stroke="none" paint-order="stroke fill markers" d=" M 137.48135298244313 564.5419900974163 C 137.48135298244313 553.6950108639771 146.27456703221011 544.9017968142101 157.12154626564927 544.9017968142101 C 167.96852549908843 544.9017968142101 176.76173954885545 553.6950108639771 176.76173954885545 564.5419900974163 C 176.76173954885545 575.3889693308554 167.96852549908843 584.1821833806224 157.12154626564927 584.1821833806224 C 146.27456703221011 584.1821833806224 137.48135298244313 575.3889693308554 137.48135298244313 564.5419900974163 Z" fill-opacity="1"/><path fill="rgb(183,216,223)" stroke="none" paint-order="stroke fill markers" d=" M 294.6028992480924 0 C 294.6028992480924 -10.846979233439153 303.3961132978594 -19.64019328320616 314.24309253129854 -19.64019328320616 C 325.0900717647377 -19.64019328320616 333.8832858145047 -10.846979233439153 333.8832858145047 0 C 333.8832858145047 10.846979233439153 325.0900717647377 19.64019328320616 314.24309253129854 19.64019328320616 C 303.3961132978594 19.64019328320616 294.6028992480924 10.846979233439153 294.6028992480924 0 Z" fill-opacity="1"/><path fill="rgb(183,216,223)" stroke="none" paint-order="stroke fill markers" d=" M 294.6028992480924 282.27099504870813 C 294.6028992480924 271.424015815269 303.3961132978594 262.630801765502 314.24309253129854 262.630801765502 C 325.0900717647377 262.630801765502 333.8832858145047 271.424015815269 333.8832858145047 282.27099504870813 C 333.8832858145047 293.11797428214726 325.0900717647377 301.91118833191433 314.24309253129854 301.91118833191433 C 303.3961132978594 301.91118833191433 294.6028992480924 293.11797428214726 294.6028992480924 282.27099504870813 Z" fill-opacity="1"/><path fill="rgb(183,216,223)" stroke="none" paint-order="stroke fill markers" d=" M 294.6028992480924 564.5419900974163 C 294.6028992480924 553.6950108639771 303.3961132978594 544.9017968142101 314.24309253129854 544.9017968142101 C 325.0900717647377 544.9017968142101 333.8832858145047 553.6950108639771 333.8832858145047 564.5419900974163 C 333.8832858145047 575.3889693308554 325.0900717647377 584.1821833806224 314.24309253129854 584.1821833806224 C 303.3961132978594 584.1821833806224 294.6028992480924 575.3889693308554 294.6028992480924 564.5419900974163 Z" fill-opacity="1"/><path fill="rgb(183,216,223)" stroke="none" paint-order="stroke fill markers" d=" M 451.72444551374167 0 C 451.72444551374167 -10.846979233439153 460.5176595635087 -19.64019328320616 471.3646387969478 -19.64019328320616 C 482.21161803038694 -19.64019328320616 491.00483208015396 -10.846979233439153 491.00483208015396 0 C 491.00483208015396 10.846979233439153 482.21161803038694 19.64019328320616 471.3646387969478 19.64019328320616 C 460.5176595635087 19.64019328320616 451.72444551374167 10.846979233439153 451.72444551374167 0 Z" fill-opacity="1"/><path fill="rgb(183,216,223)" stroke="none" paint-order="stroke fill markers" d=" M 451.72444551374167 282.27099504870813 C 451.72444551374167 271.424015815269 460.5176595635087 262.630801765502 471.3646387969478 262.630801765502 C 482.21161803038694 262.630801765502 491.00483208015396 271.424015815269 491.00483208015396 282.27099504870813 C 491.00483208015396 293.11797428214726 482.21161803038694 301.91118833191433 471.3646387969478 301.91118833191433 C 460.5176595635087 301.91118833191433 451.72444551374167 293.11797428214726 451.72444551374167 282.27099504870813 Z" fill-opacity="1"/><path fill="rgb(183,216,223)" stroke="none" paint-order="stroke fill markers" d=" M 451.72444551374167 564.5419900974163 C 451.72444551374167 553.6950108639771 460.5176595635087 544.9017968142101 471.3646387969478 544.9017968142101 C 482.21161803038694 544.9017968142101 491.00483208015396 553.6950108639771 491.00483208015396 564.5419900974163 C 491.00483208015396 575.3889693308554 482.21161803038694 584.1821833806224 471.3646387969478 584.1821833806224 C 460.5176595635087 584.1821833806224 451.72444551374167 575.3889693308554 451.72444551374167 564.5419900974163 Z" fill-opacity="1"/><path fill="rgb(183,216,223)" stroke="none" paint-order="stroke fill markers" d=" M 608.8459917793909 0 C 608.8459917793909 -10.846979233439153 617.639205829158 -19.64019328320616 628.4861850625971 -19.64019328320616 C 639.3331642960362 -19.64019328320616 648.1263783458032 -10.846979233439153 648.1263783458032 0 C 648.1263783458032 10.846979233439153 639.3331642960362 19.64019328320616 628.4861850625971 19.64019328320616 C 617.639205829158 19.64019328320616 608.8459917793909 10.846979233439153 608.8459917793909 0 Z" fill-opacity="1"/><path fill="rgb(183,216,223)" stroke="none" paint-order="stroke fill markers" d=" M 608.8459917793909 282.27099504870813 C 608.8459917793909 271.424015815269 617.639205829158 262.630801765502 628.4861850625971 262.630801765502 C 639.3331642960362 262.630801765502 648.1263783458032 271.424015815269 648.1263783458032 282.27099504870813 C 648.1263783458032 293.11797428214726 639.3331642960362 301.91118833191433 628.4861850625971 301.91118833191433 C 617.639205829158 301.91118833191433 608.8459917793909 293.11797428214726 608.8459917793909 282.27099504870813 Z" fill-opacity="1"/><path fill="rgb(183,216,223)" stroke="none" paint-order="stroke fill markers" d=" M 608.8459917793909 564.5419900974163 C 608.8459917793909 553.6950108639771 617.639205829158 544.9017968142101 628.4861850625971 544.9017968142101 C 639.3331642960362 544.9017968142101 648.1263783458032 553.6950108639771 648.1263783458032 564.5419900974163 C 648.1263783458032 575.3889693308554 639.3331642960362 584.1821833806224 628.4861850625971 584.1821833806224 C 617.639205829158 584.1821833806224 608.8459917793909 575.3889693308554 608.8459917793909 564.5419900974163 Z" fill-opacity="1"/><path fill="rgb(183,216,223)" stroke="none" paint-order="stroke fill markers" d=" M 765.9675380450402 0 C 765.9675380450402 -10.846979233439153 774.7607520948072 -19.64019328320616 785.6077313282464 -19.64019328320616 C 796.4547105616855 -19.64019328320616 805.2479246114525 -10.846979233439153 805.2479246114525 0 C 805.2479246114525 10.846979233439153 796.4547105616855 19.64019328320616 785.6077313282464 19.64019328320616 C 774.7607520948072 19.64019328320616 765.9675380450402 10.846979233439153 765.9675380450402 0 Z" fill-opacity="1"/><path fill="rgb(183,216,223)" stroke="none" paint-order="stroke fill markers" d=" M 765.9675380450402 282.27099504870813 C 765.9675380450402 271.424015815269 774.7607520948072 262.630801765502 785.6077313282464 262.630801765502 C 796.4547105616855 262.630801765502 805.2479246114525 271.424015815269 805.2479246114525 282.27099504870813 C 805.2479246114525 293.11797428214726 796.4547105616855 301.91118833191433 785.6077313282464 301.91118833191433 C 774.7607520948072 301.91118833191433 765.9675380450402 293.11797428214726 765.9675380450402 282.27099504870813 Z" fill-opacity="1"/><path fill="rgb(183,216,223)" stroke="none" paint-order="stroke fill markers" d=" M 765.9675380450402 564.5419900974163 C 765.9675380450402 553.6950108639771 774.7607520948072 544.9017968142101 785.6077313282464 544.9017968142101 C 796.4547105616855 544.9017968142101 805.2479246114525 553.6950108639771 805.2479246114525 564.5419900974163 C 805.2479246114525 575.3889693308554 796.4547105616855 584.1821833806224 785.6077313282464 584.1821833806224 C 774.7607520948072 584.1821833806224 765.9675380450402 575.3889693308554 765.9675380450402 564.5419900974163 Z" fill-opacity="1"/><path fill="rgb(183,216,223)" stroke="none" paint-order="stroke fill markers" d=" M 923.0890843106895 0 C 923.0890843106895 -10.846979233439153 931.8822983604565 -19.64019328320616 942.7292775938956 -19.64019328320616 C 953.5762568273348 -19.64019328320616 962.3694708771018 -10.846979233439153 962.3694708771018 0 C 962.3694708771018 10.846979233439153 953.5762568273348 19.64019328320616 942.7292775938956 19.64019328320616 C 931.8822983604565 19.64019328320616 923.0890843106895 10.846979233439153 923.0890843106895 0 Z" fill-opacity="1"/><path fill="rgb(183,216,223)" stroke="none" paint-order="stroke fill markers" d=" M 923.0890843106895 282.27099504870813 C 923.0890843106895 271.424015815269 931.8822983604565 262.630801765502 942.7292775938956 262.630801765502 C 953.5762568273348 262.630801765502 962.3694708771018 271.424015815269 962.3694708771018 282.27099504870813 C 962.3694708771018 293.11797428214726 953.5762568273348 301.91118833191433 942.7292775938956 301.91118833191433 C 931.8822983604565 301.91118833191433 923.0890843106895 293.11797428214726 923.0890843106895 282.27099504870813 Z" fill-opacity="1"/><path fill="rgb(183,216,223)" stroke="none" paint-order="stroke fill markers" d=" M 923.0890843106895 564.5419900974163 C 923.0890843106895 553.6950108639771 931.8822983604565 544.9017968142101 942.7292775938956 544.9017968142101 C 953.5762568273348 544.9017968142101 962.3694708771018 553.6950108639771 962.3694708771018 564.5419900974163 C 962.3694708771018 575.3889693308554 953.5762568273348 584.1821833806224 942.7292775938956 584.1821833806224 C 931.8822983604565 584.1821833806224 923.0890843106895 575.3889693308554 923.0890843106895 564.5419900974163 Z" fill-opacity="1"/><path fill="rgb(183,216,223)" stroke="none" paint-order="stroke fill markers" d=" M 1080.2106305763389 0 C 1080.2106305763389 -10.846979233439153 1089.0038446261058 -19.64019328320616 1099.850823859545 -19.64019328320616 C 1110.6978030929843 -19.64019328320616 1119.4910171427512 -10.846979233439153 1119.4910171427512 0 C 1119.4910171427512 10.846979233439153 1110.6978030929843 19.64019328320616 1099.850823859545 19.64019328320616 C 1089.0038446261058 19.64019328320616 1080.2106305763389 10.846979233439153 1080.2106305763389 0 Z" fill-opacity="1"/><path fill="rgb(183,216,223)" stroke="none" paint-order="stroke fill markers" d=" M 1080.2106305763389 282.27099504870813 C 1080.2106305763389 271.424015815269 1089.0038446261058 262.630801765502 1099.850823859545 262.630801765502 C 1110.6978030929843 262.630801765502 1119.4910171427512 271.424015815269 1119.4910171427512 282.27099504870813 C 1119.4910171427512 293.11797428214726 1110.6978030929843 301.91118833191433 1099.850823859545 301.91118833191433 C 1089.0038446261058 301.91118833191433 1080.2106305763389 293.11797428214726 1080.2106305763389 282.27099504870813 Z" fill-opacity="1"/><path fill="rgb(183,216,223)" stroke="none" paint-order="stroke fill markers" d=" M 1080.2106305763389 564.5419900974163 C 1080.2106305763389 553.6950108639771 1089.0038446261058 544.9017968142101 1099.850823859545 544.9017968142101 C 1110.6978030929843 544.9017968142101 1119.4910171427512 553.6950108639771 1119.4910171427512 564.5419900974163 C 1119.4910171427512 575.3889693308554 1110.6978030929843 584.1821833806224 1099.850823859545 584.1821833806224 C 1089.0038446261058 584.1821833806224 1080.2106305763389 575.3889693308554 1080.2106305763389 564.5419900974163 Z" fill-opacity="1"/><path fill="rgb(183,216,223)" stroke="none" paint-order="stroke fill markers" d=" M 1237.332176841988 0 C 1237.332176841988 -10.846979233439153 1246.125390891755 -19.64019328320616 1256.9723701251942 -19.64019328320616 C 1267.8193493586334 -19.64019328320616 1276.6125634084003 -10.846979233439153 1276.6125634084003 0 C 1276.6125634084003 10.846979233439153 1267.8193493586334 19.64019328320616 1256.9723701251942 19.64019328320616 C 1246.125390891755 19.64019328320616 1237.332176841988 10.846979233439153 1237.332176841988 0 Z" fill-opacity="1"/><path fill="rgb(183,216,223)" stroke="none" paint-order="stroke fill markers" d=" M 1237.332176841988 282.27099504870813 C 1237.332176841988 271.424015815269 1246.125390891755 262.630801765502 1256.9723701251942 262.630801765502 C 1267.8193493586334 262.630801765502 1276.6125634084003 271.424015815269 1276.6125634084003 282.27099504870813 C 1276.6125634084003 293.11797428214726 1267.8193493586334 301.91118833191433 1256.9723701251942 301.91118833191433 C 1246.125390891755 301.91118833191433 1237.332176841988 293.11797428214726 1237.332176841988 282.27099504870813 Z" fill-opacity="1"/><path fill="rgb(183,216,223)" stroke="none" paint-order="stroke fill markers" d=" M 1237.332176841988 564.5419900974163 C 1237.332176841988 553.6950108639771 1246.125390891755 544.9017968142101 1256.9723701251942 544.9017968142101 C 1267.8193493586334 544.9017968142101 1276.6125634084003 553.6950108639771 1276.6125634084003 564.5419900974163 C 1276.6125634084003 575.3889693308554 1267.8193493586334 584.1821833806224 1256.9723701251942 584.1821833806224 C 1246.125390891755 584.1821833806224 1237.332176841988 575.3889693308554 1237.332176841988 564.5419900974163 Z" fill-opacity="1"/><path fill="rgb(183,216,223)" stroke="none" paint-order="stroke fill markers" d=" M 1394.4537231076372 0 C 1394.4537231076372 -10.846979233439153 1403.246937157404 -19.64019328320616 1414.0939163908433 -19.64019328320616 C 1424.9408956242826 -19.64019328320616 1433.7341096740495 -10.846979233439153 1433.7341096740495 0 C 1433.7341096740495 10.846979233439153 1424.9408956242826 19.64019328320616 1414.0939163908433 19.64019328320616 C 1403.246937157404 19.64019328320616 1394.4537231076372 10.846979233439153 1394.4537231076372 0 Z" fill-opacity="1"/><path fill="rgb(183,216,223)" stroke="none" paint-order="stroke fill markers" d=" M 1394.4537231076372 282.27099504870813 C 1394.4537231076372 271.424015815269 1403.246937157404 262.630801765502 1414.0939163908433 262.630801765502 C 1424.9408956242826 262.630801765502 1433.7341096740495 271.424015815269 1433.7341096740495 282.27099504870813 C 1433.7341096740495 293.11797428214726 1424.9408956242826 301.91118833191433 1414.0939163908433 301.91118833191433 C 1403.246937157404 301.91118833191433 1394.4537231076372 293.11797428214726 1394.4537231076372 282.27099504870813 Z" fill-opacity="1"/><path fill="rgb(183,216,223)" stroke="none" paint-order="stroke fill markers" d=" M 1394.4537231076372 564.5419900974163 C 1394.4537231076372 553.6950108639771 1403.246937157404 544.9017968142101 1414.0939163908433 544.9017968142101 C 1424.9408956242826 544.9017968142101 1433.7341096740495 553.6950108639771 1433.7341096740495 564.5419900974163 C 1433.7341096740495 575.3889693308554 1424.9408956242826 584.1821833806224 1414.0939163908433 584.1821833806224 C 1403.246937157404 584.1821833806224 1394.4537231076372 575.3889693308554 1394.4537231076372 564.5419900974163 Z" fill-opacity="1"/></g></svg>